<svg width="14" height="14" viewBox="0 0 14 14" fill="none" xmlns="http://www.w3.org/2000/svg">
<path d="M5.76552 11.6816L1.33887 12.479L2.07664 7.99055L8.32001 1.77703C8.4572 1.63861 8.62044 1.52874 8.80032 1.45376C8.9802 1.37878 9.17315 1.34018 9.36804 1.34018C9.56292 1.34018 9.75587 1.37878 9.93575 1.45376C10.1156 1.52874 10.2789 1.63861 10.4161 1.77703L11.9812 3.34214C12.1196 3.47932 12.2295 3.64257 12.3044 3.82245C12.3794 4.00233 12.418 4.19528 12.418 4.39016C12.418 4.58504 12.3794 4.778 12.3044 4.95788C12.2295 5.13776 12.1196 5.301 11.9812 5.43819L5.76765 11.6816H5.76552Z" stroke="#666F8D" strokeWidth="1.30549" stroke-linecap="round" stroke-linejoin="round"/>
</svg>
