<svg width="21" height="21" viewBox="0 0 21 21" fill="none" xmlns="http://www.w3.org/2000/svg">
<path d="M10.5 0.5C4.98867 0.5 0.5 4.98867 0.5 10.5C0.5 16.0113 4.98867 20.5 10.5 20.5C16.0113 20.5 20.5 16.0113 20.5 10.5H18.5C18.5 14.9307 14.9307 18.5 10.5 18.5C6.06933 18.5 2.5 14.9307 2.5 10.5C2.5 6.06933 6.06933 2.5 10.5 2.5C12.202 2.5 13.7683 3.03539 15.0625 3.9375L13.5 5.5H18.5V0.5L16.5 2.5C14.8284 1.24468 12.7468 0.5 10.5 0.5ZM12.9062 6.93945C12.1412 6.93945 11.5499 7.19322 11.1309 7.69922C10.7119 8.20422 10.5039 8.92247 10.5039 9.85547V11.1172C10.5039 12.0432 10.7138 12.7605 11.1348 13.2695C11.5558 13.7785 12.15 14.0332 12.918 14.0332C13.68 14.0332 14.2685 13.7794 14.6875 13.2734C15.1065 12.7684 15.3164 12.0502 15.3164 11.1172V9.86133C15.3164 8.93133 15.1055 8.21212 14.6855 7.70312C14.2645 7.19413 13.6713 6.93945 12.9062 6.93945ZM8.29492 7.0332L5.26367 8.08203V9.29688L6.83789 8.83594V13.9375H8.43945V7.0332H8.29492ZM12.9082 8.17188C13.1892 8.17188 13.3944 8.29406 13.5234 8.53906C13.6534 8.78406 13.7188 9.15439 13.7188 9.65039V11.3594C13.7157 11.8554 13.6495 12.2192 13.5195 12.4512C13.3905 12.6832 13.19 12.8008 12.918 12.8008C12.637 12.8008 12.4298 12.6804 12.3008 12.4414C12.1708 12.2034 12.1074 11.8265 12.1074 11.3105V9.54688C12.1164 9.08488 12.1836 8.74167 12.3086 8.51367C12.4336 8.28667 12.6332 8.17188 12.9082 8.17188Z" fill="#32ADE6"/>
</svg>
