<svg width="25" height="25" viewBox="0 0 25 25" fill="none" xmlns="http://www.w3.org/2000/svg">
<path d="M12.4998 15.9224C7.89723 15.9224 4.1665 18.4854 4.1665 21.2797V21.875C4.1665 22.4505 4.63265 22.9167 5.20817 22.9167H19.7915C20.367 22.9167 20.8332 22.4505 20.8332 21.875V21.2797C20.8332 18.4854 17.1024 15.9224 12.4998 15.9224Z" fill="url(#paint0_linear_51_1463)"/>
<path d="M15.1043 16.6667C15.1043 17.6547 14.0627 18.75 12.5002 18.75C10.9377 18.75 9.896 17.6547 9.896 16.6667C9.896 15.2932 9.896 13.0026 9.896 13.0026H15.1043C15.1043 13.0026 15.1043 15.2932 15.1043 16.6667Z" fill="#D6A121"/>
<path d="M17.1436 9.375H16.8691V11.4583H17.2353C17.5035 11.4583 17.7322 11.2958 17.7775 11.0729L17.9566 10.1859C18.0426 9.76198 17.6546 9.375 17.1436 9.375Z" fill="url(#paint1_linear_51_1463)"/>
<path d="M7.85623 9.375H8.13071V11.4583H7.76457C7.49634 11.4583 7.26769 11.2958 7.22238 11.0729L7.04321 10.1859C6.95727 9.76198 7.3453 9.375 7.85623 9.375Z" fill="url(#paint2_linear_51_1463)"/>
<path d="M12.5 3.33333C10.187 3.33333 7.8125 3.68489 7.8125 8.68489C7.8125 9.08489 7.8125 11.7458 7.8125 12.1734C7.8125 13.9583 10.625 16.1458 12.5 16.1458C14.375 16.1458 17.1875 13.9583 17.1875 12.1734C17.1875 11.7458 17.1875 9.08541 17.1875 8.68489C17.1875 3.68489 14.813 3.33333 12.5 3.33333Z" fill="url(#paint3_radial_51_1463)"/>
<path d="M12.4998 2.88802C10.2321 2.88802 9.89567 3.7401 9.89567 3.7401C8.9738 3.87604 7.2915 5.22656 7.2915 6.77031C7.2915 7.63177 7.42952 8.26822 7.81234 10.4161C8.09619 7.00729 8.98369 5.72864 9.89567 5.72864C10.5556 5.72864 11.0795 6.24947 12.4998 6.24947C13.6993 6.24947 13.9972 5.72864 15.104 5.72864C16.6665 5.72864 17.1873 9.87864 17.1873 10.4161C17.5004 8.84843 17.7082 7.52291 17.7082 6.77031C17.7082 4.98437 15.7337 2.88802 12.4998 2.88802Z" fill="url(#paint4_radial_51_1463)"/>
<path d="M12.6143 2.60417C10.4456 2.60417 9.89765 3.74063 9.89765 3.74063C9.87577 4.34428 10.1695 4.87709 10.1695 4.87709C10.1695 4.87709 10.5654 5.72917 12.8258 5.72917C14.1904 5.72917 16.1461 4.87761 16.1461 2.60417C16.1461 2.60417 15.707 2.60417 12.6143 2.60417Z" fill="url(#paint5_radial_51_1463)"/>
<defs>
<linearGradient id="paint0_linear_51_1463" x1="10.8155" y1="15.6292" x2="13.0467" y2="23.3052" gradientUnits="userSpaceOnUse">
<stop stop-color="#33BEF0"/>
<stop offset="1" stop-color="#0A85D9"/>
</linearGradient>
<linearGradient id="paint1_linear_51_1463" x1="17.1441" y1="10.4167" x2="17.8389" y2="10.4167" gradientUnits="userSpaceOnUse">
<stop stop-color="#C48F0C"/>
<stop offset="0.251" stop-color="#D19B16"/>
<stop offset="0.619" stop-color="#DCA51F"/>
<stop offset="1" stop-color="#E0A922"/>
</linearGradient>
<linearGradient id="paint2_linear_51_1463" x1="7.85571" y1="10.4167" x2="7.16092" y2="10.4167" gradientUnits="userSpaceOnUse">
<stop stop-color="#C48F0C"/>
<stop offset="0.251" stop-color="#D19B16"/>
<stop offset="0.619" stop-color="#DCA51F"/>
<stop offset="1" stop-color="#E0A922"/>
</linearGradient>
<radialGradient id="paint3_radial_51_1463" cx="0" cy="0" r="1" gradientUnits="userSpaceOnUse" gradientTransform="translate(12.4992 9.73948) scale(5.61285)">
<stop stop-color="#FFCF54"/>
<stop offset="0.261" stop-color="#FDCB4D"/>
<stop offset="0.639" stop-color="#F7C13A"/>
<stop offset="1" stop-color="#F0B421"/>
</radialGradient>
<radialGradient id="paint4_radial_51_1463" cx="0" cy="0" r="1" gradientUnits="userSpaceOnUse" gradientTransform="translate(8.04371 3.47048) scale(13.2768)">
<stop stop-color="#C26715"/>
<stop offset="0.508" stop-color="#B85515"/>
<stop offset="1" stop-color="#AD3F16"/>
</radialGradient>
<radialGradient id="paint5_radial_51_1463" cx="0" cy="0" r="1" gradientUnits="userSpaceOnUse" gradientTransform="translate(11.7529 4.35943) scale(14.6655 15.3352)">
<stop stop-color="#C26715"/>
<stop offset="0.508" stop-color="#B85515"/>
<stop offset="1" stop-color="#AD3F16"/>
</radialGradient>
</defs>
</svg>
