<svg width="25" height="25" viewBox="0 0 25 25" fill="none" xmlns="http://www.w3.org/2000/svg">
<path d="M4.5 2.5V7.5H9.5L7.9375 5.9375C9.2317 5.03539 10.798 4.5 12.5 4.5C16.9307 4.5 20.5 8.06933 20.5 12.5C20.5 16.9307 16.9307 20.5 12.5 20.5C8.06933 20.5 4.5 16.9307 4.5 12.5H2.5C2.5 18.0113 6.98867 22.5 12.5 22.5C18.0113 22.5 22.5 18.0113 22.5 12.5C22.5 6.98867 18.0113 2.5 12.5 2.5C10.2532 2.5 8.17164 3.24468 6.5 4.5L4.5 2.5ZM14.9062 8.93945C14.1412 8.93945 13.5499 9.19322 13.1309 9.69922C12.7119 10.2042 12.5039 10.9225 12.5039 11.8555V13.1172C12.5039 14.0432 12.7138 14.7605 13.1348 15.2695C13.5558 15.7785 14.15 16.0332 14.918 16.0332C15.68 16.0332 16.2685 15.7794 16.6875 15.2734C17.1065 14.7684 17.3164 14.0502 17.3164 13.1172V11.8613C17.3164 10.9313 17.1055 10.2121 16.6855 9.70312C16.2645 9.19413 15.6713 8.93945 14.9062 8.93945ZM10.2949 9.0332L7.26367 10.082V11.2969L8.83789 10.8359V15.9375H10.4395V9.0332H10.2949ZM14.9082 10.1719C15.1892 10.1719 15.3944 10.2941 15.5234 10.5391C15.6534 10.7841 15.7188 11.1544 15.7188 11.6504V13.3594C15.7157 13.8554 15.6495 14.2192 15.5195 14.4512C15.3905 14.6832 15.19 14.8008 14.918 14.8008C14.637 14.8008 14.4298 14.6804 14.3008 14.4414C14.1708 14.2034 14.1074 13.8265 14.1074 13.3105V11.5469C14.1164 11.0849 14.1836 10.7417 14.3086 10.5137C14.4336 10.2867 14.6332 10.1719 14.9082 10.1719Z" fill="#32ADE6"/>
</svg>
