<svg viewBox="0 0 16 16" fill="none" xmlns="http://www.w3.org/2000/svg" id="Upload--Streamline-Radix" height="16" width="16">
  <desc>
    Upload Streamline Icon: https://streamlinehq.com
  </desc>
  <path fill-rule="evenodd" clip-rule="evenodd" d="M8.339466666666667 1.260672c-0.187456 -0.18744533333333332 -0.4913706666666667 -0.18744533333333332 -0.6788266666666666 0l-3.2 3.2c-0.187456 0.187456 -0.187456 0.4913706666666667 0 0.6788266666666666 0.187456 0.18744533333333332 0.4913706666666667 0.18744533333333332 0.6788266666666666 0l2.3805866666666664 -2.3805866666666664v7.374378666666666c0 0.26509866666666665 0.21490133333333333 0.48 0.48 0.48s0.48 -0.21490133333333333 0.48 -0.48V2.758912l2.38064 2.3805866666666664c0.18741333333333332 0.18744533333333332 0.49130666666666667 0.18744533333333332 0.67872 0 0.18752000000000002 -0.187456 0.18752000000000002 -0.4913706666666667 0 -0.6788266666666666l-3.199946666666667 -3.2ZM2.6666666666666665 10.666634666666665c0.29454933333333333 0 0.5333333333333333 0.238752 0.5333333333333333 0.5333653333333332V12.8c0 0.5907199999999999 0.47536 1.0666666666666667 1.0627733333333333 1.0666666666666667h7.47184c0.58848 0 1.0653866666666667 -0.4770133333333333 1.0653866666666667 -1.0666666666666667v-1.6c0 -0.29461333333333334 0.23882666666666666 -0.5333653333333332 0.5333333333333333 -0.5333653333333332s0.5333333333333333 0.238752 0.5333333333333333 0.5333653333333332V12.8c0 1.1776 -0.9533866666666667 2.1333333333333333 -2.1320533333333334 2.1333333333333333H4.2627733333333335C3.0828693333333335 14.933333333333334 2.1333333333333333 13.976533333333332 2.1333333333333333 12.8v-1.6c0 -0.29461333333333334 0.238784 -0.5333653333333332 0.5333333333333333 -0.5333653333333332Z" fill="#000000" stroke-width="1.0667"></path>
</svg>