<svg width="182" height="182" viewBox="0 0 182 182" fill="none" xmlns="http://www.w3.org/2000/svg">
<g filter="url(#filter0_f_51_1528)">
<circle cx="90.9323" cy="90.6031" r="46.3097" fill="#FE4EEE"/>
</g>
<circle cx="90.9325" cy="90.6051" r="39.2011" fill="#FE4EEE" fill-opacity="0.44" stroke="white" strokeWidth="1.86797"/>
<circle opacity="0.1" cx="90.9924" cy="90.9924" r="63.5108" fill="#FE4EEE" fill-opacity="0.44" stroke="white" strokeWidth="1.86797"/>
<circle opacity="0.1" cx="90.9924" cy="90.9924" r="84.0584" fill="#FE4EEE" fill-opacity="0.44" stroke="white" strokeWidth="1.86797"/>
<path d="M90.9335 73.6235C87.129 73.6235 83.9871 76.7654 83.9871 80.57V92.1474C83.9871 95.952 87.129 99.0939 90.9335 99.0939C94.7381 99.0939 97.88 95.952 97.88 92.1474V80.57C97.88 76.7654 94.7381 73.6235 90.9335 73.6235ZM90.9335 75.939C93.458 75.939 95.5645 78.0456 95.5645 80.57V92.1474C95.5645 94.6719 93.458 96.7784 90.9335 96.7784C88.4091 96.7784 86.3025 94.6719 86.3025 92.1474V80.57C86.3025 78.0456 88.4091 75.939 90.9335 75.939ZM80.4957 88.2717C80.1889 88.2765 79.8966 88.4029 79.6829 88.6231C79.4692 88.8432 79.3517 89.1392 79.3561 89.446V92.1474C79.3561 98.1629 83.9155 103.088 89.7758 103.666V107.198C89.7736 107.352 89.8019 107.504 89.8592 107.646C89.9164 107.789 90.0013 107.918 90.109 108.027C90.2167 108.137 90.3451 108.223 90.4866 108.283C90.6282 108.342 90.7801 108.372 90.9335 108.372C91.0869 108.372 91.2388 108.342 91.3804 108.283C91.5219 108.223 91.6503 108.137 91.758 108.027C91.8657 107.918 91.9507 107.789 92.0079 107.646C92.0651 107.504 92.0934 107.352 92.0913 107.198V103.666C97.9515 103.088 102.511 98.1629 102.511 92.1474V89.446C102.513 89.2926 102.485 89.1403 102.428 88.9979C102.37 88.8556 102.285 88.726 102.178 88.6167C102.07 88.5075 101.942 88.4207 101.8 88.3615C101.659 88.3023 101.507 88.2718 101.353 88.2718C101.2 88.2718 101.048 88.3023 100.906 88.3615C100.765 88.4207 100.636 88.5075 100.529 88.6167C100.421 88.726 100.336 88.8556 100.279 88.9979C100.222 89.1403 100.193 89.2926 100.195 89.446V92.1474C100.195 97.2718 96.1769 101.33 91.0722 101.403C91.0202 101.396 90.9679 101.393 90.9154 101.393C90.8731 101.393 90.8308 101.397 90.7888 101.402C85.687 101.325 81.6716 97.2697 81.6716 92.1474V89.446C81.6738 89.2911 81.6449 89.1372 81.5866 88.9937C81.5282 88.8501 81.4417 88.7197 81.332 88.6102C81.2224 88.5007 81.0919 88.4143 80.9482 88.3561C80.8045 88.298 80.6507 88.2693 80.4957 88.2717Z" fill="white"/>
<defs>
<filter id="filter0_f_51_1528" x="0.396748" y="0.067524" width="181.071" height="181.071" filterUnits="userSpaceOnUse" colorInterpolationFilters="sRGB">
<feFlood flood-opacity="0" result="BackgroundImageFix"/>
<feBlend mode="normal" in="SourceGraphic" in2="BackgroundImageFix" result="shape"/>
<feGaussianBlur stdDeviation="22.1129" result="effect1_foregroundBlur_51_1528"/>
</filter>
</defs>
</svg>
