<svg width="137" height="136" viewBox="0 0 137 136" fill="none" xmlns="http://www.w3.org/2000/svg">
<path d="M118.838 77.0706C120.373 74.1573 121.252 70.8452 121.252 67.3236C121.252 58.3728 115.629 50.7536 107.731 47.7511C107.731 47.7417 107.733 47.7322 107.733 47.7214C107.733 32.0423 95.0225 19.332 79.3434 19.332C66.1167 19.332 55.0354 28.3909 51.8828 40.6335C49.8874 39.9778 47.7609 39.6101 45.5466 39.6101C35.1479 39.6101 26.5892 47.4415 25.4171 57.5252C18.382 59.0136 13.1016 65.2538 13.1016 72.7311C13.1016 81.3168 20.0624 88.2776 28.6481 88.2776C28.8874 88.2776 29.124 88.2614 29.3592 88.2479C29.3538 88.4845 29.3241 88.7156 29.3241 88.9536C29.3241 104.259 41.7316 116.667 57.0375 116.667C65.7395 116.667 73.4966 112.649 78.5783 106.374C81.5227 109.382 85.6161 111.259 90.1584 111.259C96.4447 111.259 101.885 107.677 104.578 102.448C106 102.901 107.512 103.148 109.085 103.148C117.297 103.148 123.955 96.4903 123.955 88.2776C123.955 83.8016 121.968 79.7973 118.838 77.0706Z" fill="url(#paint0_linear_19_858)"/>
<path d="M108.916 82.1927C108.916 82.1927 113.837 82.1927 117.196 82.1927C120.556 82.1927 123.28 79.4687 123.28 76.1093C123.28 72.9553 120.871 70.3922 117.798 70.0866C117.828 69.842 117.872 69.6027 117.872 69.3499C117.872 65.9905 115.148 63.2664 111.789 63.2664C109.845 63.2664 108.135 64.1938 107.021 65.6133C106.832 62.0498 103.909 59.2108 100.298 59.2108C96.5654 59.2108 93.5386 62.2377 93.5386 65.9702C93.5386 66.5731 93.6427 67.1463 93.7914 67.7033C92.9235 66.6529 91.627 65.9702 90.1589 65.9702C87.7512 65.9702 85.7869 67.7749 85.4882 70.1002C85.2435 70.0704 85.0042 70.0258 84.7514 70.0258C81.392 70.0258 78.668 72.7498 78.668 76.1093C78.668 79.4687 81.392 82.1927 84.7514 82.1927C88.1108 82.1927 97.5942 82.1927 97.5942 82.1927H104.861V82.8686H108.916V82.1927Z" fill="white"/>
<path d="M100.297 58.535C96.1969 58.535 92.8618 61.8701 92.8618 65.9703C92.8618 65.992 92.8618 66.0123 92.8618 66.0339C92.048 65.554 91.1179 65.2944 90.1581 65.2944C87.6828 65.2944 85.5468 66.9991 84.9426 69.3568C84.879 69.3527 84.8155 69.35 84.7506 69.35C81.0235 69.35 77.9912 72.3823 77.9912 76.1094C77.9912 79.8365 81.0235 82.8688 84.7506 82.8688H104.86C105.233 82.8688 105.536 82.566 105.536 82.1928C105.536 81.8197 105.233 81.5169 104.86 81.5169H84.7506C81.7683 81.5169 79.3431 79.0916 79.3431 76.1094C79.3431 73.1272 81.7683 70.7019 84.7506 70.7019C84.9088 70.7019 85.0615 70.7249 85.2143 70.7452L85.4049 70.7709C85.4333 70.7749 85.4603 70.7763 85.4887 70.7763C85.8213 70.7763 86.1133 70.5262 86.1579 70.1855C86.4161 68.1671 88.1357 66.6463 90.1581 66.6463C91.3545 66.6463 92.4874 67.1884 93.2687 68.1333C93.4012 68.2929 93.5946 68.3794 93.7906 68.3794C93.896 68.3794 94.0015 68.3551 94.0988 68.3037C94.3813 68.159 94.5233 67.8359 94.4422 67.5291C94.2867 66.941 94.2137 66.4462 94.2137 65.9703C94.2137 62.6163 96.9432 59.8869 100.297 59.8869C103.516 59.8869 106.174 62.4176 106.345 65.65C106.36 65.9311 106.548 66.1731 106.817 66.2583C106.885 66.2799 106.954 66.2907 107.023 66.2907C107.226 66.2907 107.423 66.1975 107.553 66.0312C108.595 64.7036 110.137 63.9425 111.788 63.9425C114.77 63.9425 117.196 66.3678 117.196 69.35C117.196 69.5082 117.173 69.661 117.152 69.8137L117.127 70.0043C117.105 70.1855 117.156 70.3666 117.27 70.5086C117.383 70.6505 117.55 70.7411 117.73 70.7587C120.509 71.0358 122.603 73.3367 122.603 76.1094C122.603 79.0916 120.178 81.5169 117.196 81.5169H108.915C108.542 81.5169 108.239 81.8197 108.239 82.1928C108.239 82.566 108.542 82.8688 108.915 82.8688H117.196C120.923 82.8688 123.955 79.8365 123.955 76.1094C123.955 72.869 121.672 70.1436 118.543 69.5163C118.546 69.4609 118.547 69.4055 118.547 69.35C118.547 65.6229 115.515 62.5907 111.788 62.5907C110.198 62.5907 108.688 63.153 107.485 64.1642C106.677 60.9143 103.751 58.535 100.297 58.535Z" fill="#472B29"/>
<path d="M98.27 68C96.3733 68 94.7429 69.3505 94.3319 71.1647C93.8358 70.8646 93.2694 70.7038 92.6935 70.7038C91.0685 70.7038 89.722 71.9164 89.5125 73.4994C89.2381 73.4372 88.9772 73.4075 88.723 73.4075C86.656 73.4075 84.9229 75.0297 84.7782 77.1008C84.7647 77.2874 84.9053 77.4496 85.0905 77.4631C85.0986 77.4631 85.1067 77.4631 85.1149 77.4631C85.2906 77.4631 85.4393 77.3266 85.4515 77.1495C85.5718 75.4313 87.0075 74.0834 88.7217 74.0834C89.0312 74.0834 89.357 74.1402 89.7193 74.2551C89.7491 74.2646 89.7802 74.2686 89.8099 74.2686C89.8843 74.2686 89.9586 74.2416 90.0208 74.1956C90.1073 74.1335 90.1587 74.0226 90.1587 73.9145C90.1587 72.5166 91.2956 71.3797 92.6935 71.3797C93.2978 71.3797 93.8899 71.6068 94.3576 72.0191C94.4212 72.0746 94.5009 72.1043 94.5807 72.1043C94.6239 72.1043 94.6659 72.0962 94.7064 72.0786C94.8254 72.0313 94.9065 71.9204 94.916 71.792C95.0565 70.044 96.5287 68.6759 98.27 68.6759C98.5511 68.6759 98.8445 68.7219 99.1919 68.8206C99.223 68.83 99.2555 68.8341 99.2866 68.8341C99.4339 68.8341 99.5664 68.7354 99.6097 68.5881C99.661 68.4083 99.5569 68.2217 99.3771 68.1703C98.9689 68.0541 98.616 68 98.27 68ZM117.038 70.0278C115.245 70.0278 113.648 71.2404 113.153 72.9776C113.101 73.1574 113.205 73.344 113.385 73.3953C113.418 73.4034 113.449 73.4075 113.479 73.4075C113.626 73.4075 113.761 73.3102 113.803 73.1615C114.215 71.715 115.546 70.7038 117.038 70.7038C117.196 70.7038 117.349 70.7227 117.5 70.743C117.517 70.7457 117.531 70.747 117.548 70.747C117.711 70.747 117.857 70.6226 117.88 70.4537C117.906 70.2684 117.776 70.0981 117.591 70.0738C117.41 70.0494 117.226 70.0278 117.038 70.0278Z" fill="#472B29"/>
<path d="M21.7606 69.3532H8.37027C7.99716 69.3532 7.69434 69.0504 7.69434 68.6772C7.69434 68.3041 7.99716 68.0013 8.37027 68.0013H21.7606C22.1337 68.0013 22.4365 68.3041 22.4365 68.6772C22.4365 69.0504 22.1351 69.3532 21.7606 69.3532ZM25.9446 69.3532H24.5928C24.2197 69.3532 23.9168 69.0504 23.9168 68.6772C23.9168 68.3041 24.2197 68.0013 24.5928 68.0013H25.9446C26.3178 68.0013 26.6206 68.3041 26.6206 68.6772C26.6206 69.0504 26.3191 69.3532 25.9446 69.3532ZM32.6919 72.0569H20.5371C20.164 72.0569 19.8612 71.7541 19.8612 71.381C19.8612 71.0079 20.164 70.7051 20.5371 70.7051H32.6919C33.065 70.7051 33.3678 71.0079 33.3678 71.381C33.3678 71.7541 33.065 72.0569 32.6919 72.0569ZM17.8334 72.0569H16.4815C16.1084 72.0569 15.8056 71.7541 15.8056 71.381C15.8056 71.0079 16.1084 70.7051 16.4815 70.7051H17.8334C18.2065 70.7051 18.5093 71.0079 18.5093 71.381C18.5093 71.7541 18.2079 72.0569 17.8334 72.0569ZM13.7778 72.0569H11.074C10.7009 72.0569 10.3981 71.7541 10.3981 71.381C10.3981 71.0079 10.7009 70.7051 11.074 70.7051H13.7778C14.1509 70.7051 14.4537 71.0079 14.4537 71.381C14.4537 71.7541 14.1522 72.0569 13.7778 72.0569ZM21.889 74.7607H19.1853C18.8122 74.7607 18.5093 74.4579 18.5093 74.0847C18.5093 73.7116 18.8122 73.4088 19.1853 73.4088H21.889C22.2621 73.4088 22.565 73.7116 22.565 74.0847C22.565 74.4579 22.2621 74.7607 21.889 74.7607ZM25.9446 62.5938C25.7054 62.5938 24.8321 62.5938 24.5928 62.5938C24.2197 62.5938 23.9168 62.8966 23.9168 63.2697C23.9168 63.6429 24.2197 63.9457 24.5928 63.9457C24.8321 63.9457 25.7054 63.9457 25.9446 63.9457C26.3178 63.9457 26.6206 63.6429 26.6206 63.2697C26.6206 62.8966 26.3178 62.5938 25.9446 62.5938ZM25.9446 65.2976C25.7054 65.2976 19.4246 65.2976 19.1853 65.2976C18.8122 65.2976 18.5093 65.6004 18.5093 65.9735C18.5093 66.3466 18.8122 66.6494 19.1853 66.6494C19.4246 66.6494 25.7054 66.6494 25.9446 66.6494C26.3178 66.6494 26.6206 66.3466 26.6206 65.9735C26.6206 65.6004 26.3178 65.2976 25.9446 65.2976ZM32.704 68.0013C32.4647 68.0013 28.8877 68.0013 28.6484 68.0013C28.2753 68.0013 27.9725 68.3041 27.9725 68.6772C27.9725 69.0504 28.2753 69.3532 28.6484 69.3532C28.8877 69.3532 32.4647 69.3532 32.704 69.3532C33.0771 69.3532 33.38 69.0504 33.38 68.6772C33.38 68.3041 33.0771 68.0013 32.704 68.0013Z" fill="white"/>
<path d="M98.9457 32.8526H85.4269C85.0538 32.8526 84.751 32.5497 84.751 32.1766C84.751 31.8035 85.0538 31.5007 85.4269 31.5007H98.9457C99.3188 31.5007 99.6216 31.8035 99.6216 32.1766C99.6216 32.5497 99.3188 32.8526 98.9457 32.8526ZM104.353 32.8526H101.649C101.276 32.8526 100.973 32.5497 100.973 32.1766C100.973 31.8035 101.276 31.5007 101.649 31.5007H104.353C104.726 31.5007 105.029 31.8035 105.029 32.1766C105.029 32.5497 104.726 32.8526 104.353 32.8526ZM111.113 35.5563H97.5938C97.2207 35.5563 96.9179 35.2535 96.9179 34.8804C96.9179 34.5073 97.2207 34.2044 97.5938 34.2044H111.113C111.486 34.2044 111.788 34.5073 111.788 34.8804C111.788 35.2535 111.487 35.5563 111.113 35.5563ZM94.89 35.5563H93.5382C93.1651 35.5563 92.8622 35.2535 92.8622 34.8804C92.8622 34.5073 93.1651 34.2044 93.5382 34.2044H94.89C95.2632 34.2044 95.566 34.5073 95.566 34.8804C95.566 35.2535 95.2632 35.5563 94.89 35.5563ZM90.6654 35.5563H88.1307C87.7576 35.5563 87.4547 35.2535 87.4547 34.8804C87.4547 34.5073 87.7576 34.2044 88.1307 34.2044H90.6654C91.0386 34.2044 91.3414 34.5073 91.3414 34.8804C91.3414 35.2535 91.0386 35.5563 90.6654 35.5563ZM103.001 30.1488H96.2419C95.8688 30.1488 95.566 29.846 95.566 29.4729C95.566 29.0998 95.8688 28.7969 96.2419 28.7969H103.001C103.374 28.7969 103.677 29.0998 103.677 29.4729C103.677 29.846 103.376 30.1488 103.001 30.1488ZM98.9457 38.2601H96.2419C95.8688 38.2601 95.566 37.9572 95.566 37.5841C95.566 37.211 95.8688 36.9082 96.2419 36.9082H98.9457C99.3188 36.9082 99.6216 37.211 99.6216 37.5841C99.6216 37.9572 99.3188 38.2601 98.9457 38.2601Z" fill="white"/>
<path d="M50.9546 96.7929C45.5133 96.7929 41.0859 92.3668 41.0859 86.9242V49.0717C41.0859 43.6304 45.512 39.203 50.9546 39.203H88.8071C94.2484 39.203 98.6758 43.629 98.6758 49.0717V86.9242C98.6758 92.3655 94.2498 96.7929 88.8071 96.7929H50.9546Z" fill="#2388FF"/>
<path d="M88.8062 40.1504C93.7257 40.1504 97.7286 44.1533 97.7286 49.0728V86.9253C97.7286 91.8447 93.7257 95.8476 88.8062 95.8476H50.9537C46.0342 95.8476 42.0313 91.8447 42.0313 86.9253V49.0728C42.0313 44.1533 46.0342 40.1504 50.9537 40.1504H88.8062ZM88.8062 38.2578H50.9537C44.9811 38.2578 40.1387 43.1002 40.1387 49.0728V86.9253C40.1387 92.8978 44.9811 97.7402 50.9537 97.7402H88.8062C94.7788 97.7402 99.6212 92.8978 99.6212 86.9253V49.0728C99.6212 43.1002 94.7788 38.2578 88.8062 38.2578Z" fill="#472B29"/>
<path d="M93.4328 65.2025L93.4409 67.4317L93.5112 85.7402C93.5234 88.8928 90.9535 91.4816 87.8023 91.4938L52.1398 91.629C48.9872 91.6411 46.3984 89.0712 46.3862 85.92L46.251 50.2575C46.2389 47.105 48.8088 44.5161 51.96 44.5039L84.2779 44.3809L87.6211 44.3688C90.7737 44.3566 93.3625 46.9265 93.3747 50.0777L93.3909 54.3767L93.4004 56.9236L93.4058 58.1971L93.4112 59.6301L93.4247 63.2923L93.4328 65.2025Z" fill="white"/>
<path d="M93.465 64.6358C93.0919 64.6358 92.7891 64.333 92.7891 63.9599V58.9498C92.7891 58.5767 93.0919 58.2739 93.465 58.2739C93.8381 58.2739 94.1409 58.5767 94.1409 58.9498V63.9599C94.1409 64.333 93.8381 64.6358 93.465 64.6358Z" fill="#472B29"/>
<path d="M93.549 55.9143C93.1759 55.9143 92.873 55.6115 92.873 55.2384V52.6523C92.873 52.2791 93.1759 51.9763 93.549 51.9763C93.9221 51.9763 94.2249 52.2791 94.2249 52.6523V55.2384C94.2249 55.6115 93.9235 55.9143 93.549 55.9143Z" fill="#472B29"/>
<path d="M87.7941 92.2518H52.0519C48.5113 92.2518 45.6318 89.3709 45.6318 85.8317V50.0881C45.6318 46.5489 48.5113 43.6681 52.0519 43.6681H84.4428C84.8159 43.6681 85.1188 43.9709 85.1188 44.344C85.1188 44.7171 84.8159 45.02 84.4428 45.02H52.0519C49.2576 45.02 46.9837 47.2938 46.9837 50.0881V85.8304C46.9837 88.6247 49.2576 90.8985 52.0519 90.8985H87.7941C90.5884 90.8985 92.8623 88.6247 92.8623 85.8304V67.48C92.8623 67.1069 93.1651 66.8041 93.5382 66.8041C93.9114 66.8041 94.2142 67.1069 94.2142 67.48V85.8304C94.2142 89.3709 91.3347 92.2518 87.7941 92.2518Z" fill="#472B29"/>
<path d="M50.2781 99.7697C50.2781 99.7697 52.3965 99.7697 55.0096 99.7697C57.6228 99.7697 59.7412 97.6513 59.7412 95.0382C59.7412 92.6305 57.9365 90.6662 55.6112 90.3674C55.6491 90.1254 55.6856 89.8835 55.6856 89.6307C55.6856 87.0175 53.5672 84.8991 50.954 84.8991C49.5589 84.8991 48.3179 85.5142 47.4527 86.474C46.9335 84.0298 44.7665 82.1953 42.1668 82.1953C39.1805 82.1953 36.7593 84.6166 36.7593 87.6028C36.7593 87.8611 36.7999 88.1084 36.835 88.3572C36.2564 87.8921 35.5318 87.6028 34.7315 87.6028C33.0714 87.6028 31.6966 88.802 31.4127 90.3809C31.1707 90.3431 30.9287 90.3066 30.6759 90.3066C28.0627 90.3066 25.9443 92.425 25.9443 95.0382C25.9443 97.6513 28.0627 99.7697 30.6759 99.7697C33.2891 99.7697 40.815 99.7697 40.815 99.7697V100.446H50.2781V99.7697Z" fill="white"/>
<path d="M52.6439 93.6867C52.4573 93.6867 52.3059 93.5352 52.3059 93.3487C52.3059 91.6953 53.651 90.3502 55.3044 90.3502C55.3503 90.3624 56.3007 90.3489 56.9861 90.5341C57.1659 90.5827 57.2727 90.768 57.224 90.9478C57.1754 91.1289 56.9901 91.2357 56.8103 91.1857C56.2101 91.0235 55.3233 91.0235 55.3057 91.0262C54.0241 91.0262 52.9818 92.0685 52.9818 93.3487C52.9818 93.5352 52.8304 93.6867 52.6439 93.6867ZM43.5187 99.0942C43.1456 99.0942 42.8428 99.397 42.8428 99.7701C42.8428 100.143 43.1456 100.446 43.5187 100.446C43.8918 100.446 44.1946 100.143 44.1946 99.7701C44.1946 99.397 43.8918 99.0942 43.5187 99.0942Z" fill="#472B29"/>
<path d="M55.0098 100.446H50.2782C49.9051 100.446 49.6023 100.143 49.6023 99.7699C49.6023 99.3968 49.9051 99.094 50.2782 99.094H55.0098C57.2458 99.094 59.0654 97.2743 59.0654 95.0383C59.0654 93.0159 57.5446 91.2964 55.5262 91.0381C55.3451 91.0138 55.1815 90.9192 55.072 90.7732C54.9625 90.6272 54.9165 90.4433 54.9449 90.2635C54.976 90.0553 55.0098 89.8471 55.0098 89.6308C55.0098 87.3948 53.1902 85.5752 50.9542 85.5752C49.8051 85.5752 48.7398 86.0551 47.9544 86.9271C47.7854 87.115 47.5204 87.1948 47.2784 87.1272C47.0324 87.0609 46.8445 86.8636 46.7918 86.6148C46.3308 84.4464 44.3854 82.8715 42.167 82.8715C39.5579 82.8715 37.4354 84.9939 37.4354 87.603C37.4354 87.7963 37.4638 87.9816 37.4909 88.1681C37.5301 88.4425 37.4057 88.7602 37.1637 88.8981C36.9217 89.036 36.6284 89.0576 36.4121 88.8846C35.9186 88.4885 35.3387 88.279 34.7317 88.279C33.4258 88.279 32.3091 89.2131 32.078 90.5014C32.0131 90.8624 31.6778 91.1044 31.3087 91.049C31.1005 91.0165 30.8924 90.9827 30.6761 90.9827C28.4401 90.9827 26.6204 92.8023 26.6204 95.0383C26.6204 97.2743 28.4401 99.094 30.6761 99.094H40.8151C41.1882 99.094 41.4911 99.3968 41.4911 99.7699C41.4911 100.143 41.1882 100.446 40.8151 100.446H30.6761C27.6938 100.446 25.2686 98.0206 25.2686 95.0383C25.2686 92.0561 27.6938 89.6308 30.6761 89.6308C30.7558 89.6308 30.8329 89.6335 30.9113 89.6389C31.471 88.0356 32.9891 86.9271 34.7317 86.9271C35.2035 86.9271 35.6631 87.0096 36.0984 87.1704C36.3215 84.0165 38.9576 81.5196 42.167 81.5196C44.6423 81.5196 46.8526 83.0432 47.7813 85.2697C48.7006 84.5965 49.8118 84.2233 50.9542 84.2233C53.9364 84.2233 56.3617 86.6486 56.3617 89.6308C56.3617 89.6957 56.3603 89.7593 56.3563 89.8228C58.7126 90.4284 60.4173 92.5631 60.4173 95.0383C60.4173 98.0206 57.992 100.446 55.0098 100.446Z" fill="#472B29"/>
<path d="M47.5747 99.0938C47.3597 99.0938 46.4378 99.0938 46.2228 99.0938C45.8497 99.0938 45.5469 99.3966 45.5469 99.7697C45.5469 100.143 45.8497 100.446 46.2228 100.446C46.4378 100.446 47.3597 100.446 47.5747 100.446C47.9478 100.446 48.2506 100.143 48.2506 99.7697C48.2506 99.3966 47.9478 99.0938 47.5747 99.0938Z" fill="#472B29"/>
<path d="M79.679 80.8418H79.0031C78.63 80.8418 78.3271 80.5389 78.3271 80.1658V55.8321C78.3271 55.4589 78.63 55.1561 79.0031 55.1561H79.679C80.0521 55.1561 80.355 55.4589 80.355 55.8321V80.1658C80.355 80.5389 80.0521 80.8418 79.679 80.8418Z" fill="#78A0CF" stroke="#472B29" strokeWidth="0.675937" stroke-miterlimit="10"/>
<path d="M60.7562 80.8418H60.0802C59.7071 80.8418 59.4043 80.5389 59.4043 80.1658V55.8321C59.4043 55.4589 59.7071 55.1561 60.0802 55.1561H60.7562C61.1293 55.1561 61.4321 55.4589 61.4321 55.8321V80.1658C61.4321 80.5389 61.1293 80.8418 60.7562 80.8418Z" fill="#78A0CF" stroke="#472B29" strokeWidth="0.675937" stroke-miterlimit="10"/>
<path d="M56.0247 75.7731H55.3488C54.9757 75.7731 54.6729 75.4702 54.6729 75.0971V60.9024C54.6729 60.5293 54.9757 60.2265 55.3488 60.2265H56.0247C56.3978 60.2265 56.7007 60.5293 56.7007 60.9024V75.0971C56.7007 75.4702 56.3978 75.7731 56.0247 75.7731Z" fill="#A2B3CB" stroke="#472B29" strokeWidth="0.675937" stroke-miterlimit="10"/>
<path d="M84.4105 75.7731H83.7345C83.3614 75.7731 83.0586 75.4702 83.0586 75.0971V60.9024C83.0586 60.5293 83.3614 60.2265 83.7345 60.2265H84.4105C84.7836 60.2265 85.0864 60.5293 85.0864 60.9024V75.0971C85.0864 75.4702 84.7836 75.7731 84.4105 75.7731Z" fill="#A2B3CB" stroke="#472B29" strokeWidth="0.675937" stroke-miterlimit="10"/>
<path d="M65.4886 75.0969H64.8127C64.4395 75.0969 64.1367 74.7941 64.1367 74.421V61.5782C64.1367 61.2051 64.4395 60.9023 64.8127 60.9023H65.4886C65.8617 60.9023 66.1645 61.2051 66.1645 61.5782V74.421C66.1645 74.7941 65.8617 75.0969 65.4886 75.0969Z" fill="#A2B3CB" stroke="#472B29" strokeWidth="0.675937" stroke-miterlimit="10"/>
<path d="M74.9505 75.0969H74.2746C73.9015 75.0969 73.5986 74.7941 73.5986 74.421V61.5782C73.5986 61.2051 73.9015 60.9023 74.2746 60.9023H74.9505C75.3236 60.9023 75.6264 61.2051 75.6264 61.5782V74.421C75.6264 74.7941 75.3236 75.0969 74.9505 75.0969Z" fill="#A2B3CB" stroke="#472B29" strokeWidth="0.675937" stroke-miterlimit="10"/>
<path d="M51.2933 71.0403H50.6173C50.2442 71.0403 49.9414 70.7375 49.9414 70.3644V65.6328C49.9414 65.2597 50.2442 64.9569 50.6173 64.9569H51.2933C51.6664 64.9569 51.9692 65.2597 51.9692 65.6328V70.3644C51.9692 70.7375 51.6664 71.0403 51.2933 71.0403Z" fill="#C5DEF0" stroke="#472B29" strokeWidth="0.675937" stroke-miterlimit="10"/>
<path d="M70.2171 71.0403H69.5412C69.1681 71.0403 68.8652 70.7375 68.8652 70.3644V65.6328C68.8652 65.2597 69.1681 64.9569 69.5412 64.9569H70.2171C70.5902 64.9569 70.893 65.2597 70.893 65.6328V70.3644C70.893 70.7375 70.5902 71.0403 70.2171 71.0403Z" fill="#C5DEF0" stroke="#472B29" strokeWidth="0.675937" stroke-miterlimit="10"/>
<path d="M89.1419 71.3803H88.466C88.0929 71.3803 87.79 71.0775 87.79 70.7043V65.9728C87.79 65.5997 88.0929 65.2968 88.466 65.2968H89.1419C89.515 65.2968 89.8179 65.5997 89.8179 65.9728V70.7043C89.8179 71.0775 89.515 71.3803 89.1419 71.3803Z" fill="#C5DEF0" stroke="#472B29" strokeWidth="0.675937" stroke-miterlimit="10"/>
<defs>
<linearGradient id="paint0_linear_19_858" x1="68.5284" y1="-10" x2="68.5284" y2="116.5" gradientUnits="userSpaceOnUse">
<stop stop-color="#2F81FF"/>
<stop offset="1" stop-color="#1C4D99" stopOpacity="0"/>
</linearGradient>
</defs>
</svg>
